<svg xmlns="http://www.w3.org/2000/svg" xmlns:xlink="http://www.w3.org/1999/xlink" xmlns:inkscape="http://www.inkscape.org/namespaces/inkscape" version="1.1" width="424.75" height="93.25" viewBox="3.375 97.625 424.75 93.25">
<defs>
<path id="font_1_5" d="M.09098816 .018997193C.09098816 .008987427 .099990848 0 .10998535 0H.20298767C.21398926 0 .22200012 .008987427 .22200012 .018997193V.29501344H.5479889V.018997193C.5479889 .008987427 .55599978 0 .5669861 0H.6589966C.6689911 0 .6779938 .008987427 .6779938 .018997193V.6811676C.6779938 .69117739 .6689911 .7001953 .6589966 .7001953H.5669861C.55599978 .7001953 .5479889 .69117739 .5479889 .6811676V.41601563H.22200012V.6811676C.22200012 .69117739 .21398926 .7001953 .20298767 .7001953H.10998535C.099990848 .7001953 .09098816 .69117739 .09098816 .6811676V.018997193Z"/>
<path id="font_1_2" d="M.016998291 0H.10398865C.11999512 0 .1289978 .009994507 .1329956 .019989014L.18199158 .12792969H.48098756L.5299988 .019989014C.5369873 .005996704 .5439911 0 .5589905 0H.6459961C.6609955 0 .6689911 .0129852299 .6629944 .025985718L.35499574 .6989441C.35198976 .70495608 .34799195 .70996096 .33799745 .70996096H.32798768C.31900025 .70996096 .31399537 .70495608 .31098939 .6989441L0 .025985718C-.006011963 .0129852299 .0019989014 0 .016998291 0M.23098755 .23892212 .32899476 .4589386H.33198548L.43199159 .23892212H.23098755Z"/>
<path id="font_1_10" d="M.21798706 .0042266848C.21998596-.003768921 .22799683-.009765625 .23599243-.009765625H.2519989C.2619934-.009765625 .2659912-.004776001 .2689972 .0012207031L.44599916 .45419313H.45098878L.6299896 .0012207031C.6319885-.004776001 .6380005-.009765625 .6469879-.009765625H.6629944C.67099-.009765625 .67900088-.003768921 .68099978 .0042266848L.8699951 .67619326C.8739929 .69018557 .8659973 .7001953 .85198977 .7001953H.7599945C.7519989 .7001953 .74398806 .6931915 .74198916 .68618777L.6399994 .2872162H.6359863L.47599793 .69918826C.47399903 .70495608 .46899415 .70996096 .45899964 .70996096H.44099427C.43099977 .70996096 .42599488 .70495608 .42399598 .69895938L.2649994 .28710938H.26098634L.15699768 .68595889C.15499878 .6931915 .14698792 .7001953 .13899231 .7001953H.04699707C.032989503 .7001953 .024993897 .69018557 .0289917 .67619326L.21798706 .0042266848Z"/>
<path id="font_1_6" d="M.09098816 .018997193C.09098816 .008987427 .099990848 0 .10998535 0H.20298767C.21299744 0 .22200012 .008987427 .22200012 .018997193V.68118289C.22200012 .6911926 .21299744 .7001953 .20298767 .7001953H.10998535C.099990848 .7001953 .09098816 .6911926 .09098816 .68118289V.018997193Z"/>
<path id="font_1_11" d="M.10598755 .4140625C.14698792 .4140625 .17799378 .4450531 .17799378 .48104859 .17799378 .51805117 .14698792 .5480499 .11099243 .5480499 .09399414 .5480499 .08198547 .5430603 .07998657 .5430603 .08099365 .61206057 .13699341 .6550598 .147995 .6650543 .1559906 .671051 .15699768 .6800537 .15098572 .6870575L.13598633 .7020569C.1289978 .7100525 .12199402 .70906069 .11399841 .7030487 .08799744 .6800537 .023986817 .6190491 .023986817 .52204897 .023986817 .44004823 .069992069 .4140625 .10598755 .4140625Z"/>
<path id="font_1_1" d=""/>
<path id="font_1_8" d="M.09098816 .018997193C.09098816 .008987427 .09899902 0 .10998535 0H.20199585C.21199036 0 .22099304 .008987427 .22099304 .018997193V.2539673H.34599305C.46798707 .2539673 .56900027 .3549652 .56900027 .4790802 .56900027 .6001892 .46798707 .7001953 .34498597 .7001953H.10998535C.09899902 .7001953 .09098816 .6911926 .09098816 .68118289V.018997193M.22099304 .37597657V.5771942H.33699037C.3929901 .5771942 .43998719 .535141 .43998719 .48008729 .43998719 .4210205 .3929901 .37597657 .33699037 .37597657H.22099304Z"/>
<path id="font_1_7" d="M.09098816 .018997193C.09098816 .008987427 .09899902 0 .10998535 0H.47599793C.4869995 0 .49499513 .008987427 .49499513 .018997193V.100997928C.49499513 .11099243 .4869995 .11999512 .47599793 .11999512H.22099304V.68118289C.22099304 .69117739 .21199036 .7001953 .20199585 .7001953H.10998535C.09899902 .7001953 .09098816 .69117739 .09098816 .68118289V.018997193Z"/>
<path id="font_1_4" d="M.09098816 .018997193C.09098816 .008987427 .09899902 0 .10998535 0H.5169983C.5279999 0 .5359955 .008987427 .5359955 .018997193V.100997928C.5359955 .11099243 .5279999 .11999512 .5169983 .11999512H.22099304V.29501344H.46798707C.47799684 .29501344 .4869995 .30300904 .4869995 .31401063V.39700318C.4869995 .40701295 .47799684 .41601563 .46798707 .41601563H.22099304V.58018496H.5169983C.5279999 .58018496 .5359955 .5891876 .5359955 .5991821V.68118289C.5359955 .6911926 .5279999 .7001953 .5169983 .7001953H.10998535C.09899902 .7001953 .09098816 .6911926 .09098816 .68118289V.018997193Z"/>
<path id="font_1_9" d="M.054992677 .068222049C.07499695 .049224855 .14898682-.009765625 .2749939-.009765625 .41600038-.009765625 .5049896 .08522034 .5049896 .18818665 .5049896 .31710816 .3929901 .3750763 .29599 .41404725 .21499634 .44703675 .17799378 .47901917 .17799378 .5259857 .17799378 .55796816 .20899964 .59594729 .2659912 .59594729 .32099916 .59594729 .39698792 .54597476 .40499879 .5409851 .4169922 .5329895 .43199159 .5409851 .43998719 .5529785L.47799684 .60995486C.4850006 .61994937 .48199464 .63694766 .47200013 .6429596 .45199586 .657959 .37399293 .70996096 .27198792 .70996096 .11299133 .70996096 .04699707 .60694888 .04699707 .5179901 .04699707 .40005494 .14099121 .3400879 .23498535 .30210877 .31900025 .26812745 .3619995 .2331543 .3619995 .18218994 .3619995 .13920594 .32299806 .10522461 .2709961 .10522461 .20599365 .10522461 .125 .16419983 .11999512 .16719055 .11099243 .17419434 .09399414 .17419434 .085998538 .16020203L.049987794 .098220828C.040985109 .082229617 .04598999 .07722473 .054992677 .068222049Z"/>
<path id="font_1_3" d="M.09098816 .018997193C.09098816 .008987427 .09899902 0 .10899353 0H.34599305C.5389862 0 .69699099 .15701294 .69699099 .35108949 .69699099 .5431671 .5389862 .7001953 .34599305 .7001953H.10899353C.09899902 .7001953 .09098816 .6911926 .09098816 .68118289V.018997193M.21998596 .12199402V.5791931H.33399964C.46398927 .5791931 .5589905 .48114015 .5589905 .35108949 .5589905 .22003174 .46398927 .12199402 .33399964 .12199402H.21998596Z"/>
<path id="font_2_4" d="M.5519867 .6689606C.5309906 .6799469 .48098756 .70996096 .3869934 .70996096 .19898987 .70996096 .049987794 .6029968 .049987794 .34620667 .049987794 .0834198 .18199158-.01953125 .3869934-.01953125 .58999636-.01953125 .6689911 .079422 .6819916 .26826478 .6649933 .26626588 .6299896 .26626588 .61299136 .26826478 .6049957 .12937927 .5319977 .035461427 .3880005 .035461427 .27598573 .035461427 .19198609 .09640503 .19198609 .34620667 .19198609 .55903628 .2519989 .654953 .3959961 .654953 .5509949 .654953 .58399966 .5580292 .6029968 .4471283 .6230011 .44926454 .6489868 .44926454 .6689911 .44726563 .6639862 .5272522 .6749878 .6492615 .6839905 .7001953H.6239929C.6179962 .6479645 .60598757 .6399689 .5519867 .6689606Z"/>
<path id="font_2_5" d="M.45199586 .491333C.45199586 .4012146 .4099884 .37513734 .32299806 .37513734H.272995C.272995 .46733094 .27398683 .55436709 .27598573 .58140566 .27799989 .6094208 .2899933 .6284485 .32299806 .6284485H.47299195C.59298709 .6284485 .6289978 .58940127 .6289978 .44433595H.68299868C.6819916 .5163269 .68299868 .62231448 .68899539 .6953125 .6419983 .6894531 .5249939 .6894531 .48199464 .6894531 .34199525 .6894531 .23199463 .68844607 .21299744 .68844607 .19400025 .68844607 .053985597 .69044497 .037994386 .69044497V.6314697H.100997928C.13699341 .6314697 .1499939 .6204529 .15299988 .58140566 .15699768 .52233889 .15699768 .1743164 .15299988 .11917114 .1499939 .08406067 .13999939 .05899048 .09399414 .05899048H.037994386V-.0020141602C.037994386-.0020141602 .16099549 0 .20799256 0H.49499513C.5379944 0 .6359863 0 .68299868-.0040130617 .68299868 .08206177 .6859894 .19036865 .69299319 .26437379H.6319885C.6319885 .122177127 .59599307 .05899048 .47099305 .05899048H.32798768C.2999878 .05899048 .27799989 .073028568 .27598573 .11114502 .27398683 .14022827 .272995 .2323761 .272995 .32714845H.31999208C.4169922 .32714845 .45199586 .2902832 .45399476 .20437622V.19238281H.5069885C.5039978 .24337769 .5039978 .2783203 .5039978 .35214234 .5039978 .4252777 .5059967 .44833375 .5069885 .5063324H.45199586V.491333Z"/>
<path id="font_2_11" d="M.27198792 .6904297C.21598816 .6884155 .09498596 .6884155 .038986207 .6904297V.63142397H.101989749C.13798523 .63142397 .1519928 .62042239 .15499878 .5813904 .15899658 .5223541 .1579895 .17411804 .15499878 .10006714 .1539917 .06604004 .14099121 .059036256 .09498596 .059036256H.037994386V-.001953125C.037994386-.001953125 .13598633 .000045776369 .19099427 .000045776369 .24598694 .000045776369 .34399415-.001953125 .34399415-.001953125V.059036256H.28599549C.23999024 .059036256 .22698975 .06604004 .22599793 .10006714 .22299195 .1591034 .22299195 .39126588 .22399903 .5493622 .34498597 .37722779 .5159912 .12704468 .6009979 0 .61898806 .0019989014 .6599884 .0019989014 .6779938 0 .6749878 .12004089 .6749878 .52233889 .6779938 .5803833 .6799927 .6204071 .69499209 .63142397 .73098757 .63142397H.79499819V.6904297C.79499819 .6904297 .69799807 .6874237 .6429901 .6874237 .58799746 .6874237 .5059967 .6904297 .48999024 .6904297V.63142397H.55400088C.58999636 .63142397 .6049957 .6204071 .6069946 .5803833 .6100006 .52633669 .6100006 .33520509 .6069946 .20910645 .5130005 .3392334 .34700013 .5763855 .27198792 .6904297Z"/>
<path id="font_2_15" d="M.49299623 .63142397C.57099917 .63142397 .59599307 .59539797 .598999 .5373535L.6029968 .43829347H.6669922C.6639862 .49923707 .6669922 .6333008 .6719971 .69433596 .6349945 .6914215 .6069946 .6904297 .5179901 .6904297H.19400025C.11898804 .6904297 .066986087 .6914215 .037994386 .6944275 .042999269 .63342288 .04598999 .4993286 .042999269 .43829347H.10899353L.11299133 .5373535C.115997318 .59539797 .14099121 .63142397 .21899414 .63142397H.2979889C.30099488 .4993286 .30099488 .17211914 .2979889 .11907959 .29599 .08105469 .28199769 .059036256 .23799134 .059036256H.18099976V-.001953125C.18099976-.001953125 .29299928 .000045776369 .35598756 .000045776369 .4189911 .000045776369 .5299988-.001953125 .5299988-.001953125V.059036256H.46899415C.42399598 .059036256 .4149933 .08105469 .41299439 .11907959 .4099884 .17211914 .4099884 .4993286 .4119873 .63142397H.49299623Z"/>
<path id="font_2_13" d="M.59498599 .1914978C.58599856 .2625122 .5589905 .30651856 .48199464 .32652284 .57199099 .33750917 .6459961 .40550233 .6459961 .5054779 .6459961 .6284485 .5509949 .6894531 .38198854 .6894531 .33999635 .6894531 .25898744 .68844607 .21299744 .68844607 .19400025 .68844607 .053985597 .69044497 .037994386 .69044497V.6314697H.101989749C.13798523 .6314697 .1519928 .62046816 .1539917 .58148196 .15699768 .52249148 .15699768 .17425537 .1539917 .1181488 .1519928 .07406616 .1309967 .059036256 .085998538 .059036256H.037994386V-.001953125C.037994386-.001953125 .14698792 .000045776369 .20899964 .000045776369 .2619934 .000045776369 .37998963-.001953125 .37998963-.001953125V.057037355H.33198548C.29699708 .057037355 .27799989 .07406616 .2749939 .11715698 .272995 .14120484 .27198792 .22335816 .27198792 .31152345H.34199525C.40899659 .31152345 .45799256 .29048158 .46398927 .17927552 .47099305 .05445862 .49798585-.01953125 .6309967-.01953125 .7559967-.01953125 .7719879 .09347534 .7449951 .21150208L.69898989 .20649719C.71598818 .113479617 .71099856 .046463014 .6649933 .046463014 .6309967 .046463014 .61099246 .066467288 .59498599 .1914978M.2749939 .6004486C.27598573 .6254425 .2849884 .6404419 .31399537 .6404419H.3659973C.47200013 .6404419 .5130005 .60446169 .5130005 .503479 .5130005 .40150453 .47200013 .35951234 .35299684 .35951234H.27198792C.27198792 .460495 .272995 .5624695 .2749939 .6004486Z"/>
<path id="font_2_1" d=""/>
<path id="font_2_6" d="M.44299317 .50434878V.48234559C.44299317 .3982849 .39698792 .37625123 .31298829 .37625123H.27398683C.27398683 .46635438 .27398683 .5533905 .27598573 .58140566 .2769928 .60943606 .2899933 .6284485 .32299806 .6284485H.43598939C.5519867 .6284485 .59999087 .5904236 .59999087 .44335938H.6549988C.6539917 .51535037 .6549988 .6223297 .6609955 .6953125 .6139984 .6894531 .49598695 .6894531 .45298768 .6894531 .31298829 .6894531 .23199463 .68844607 .21299744 .68844607 .19400025 .68844607 .053985597 .69044497 .037994386 .69044497V.6314697H.101989749C.13798523 .6314697 .1519928 .6204529 .1539917 .5814209 .15699768 .5223694 .15699768 .19415283 .1539917 .12008667 .15299988 .08506775 .14099121 .059036256 .09498596 .059036256H.037994386V-.001953125C.037994386-.001953125 .1559906 .000045776369 .22200012 .000045776369 .28799439 .000045776369 .4059906-.001953125 .4059906-.001953125V.059036256H.33499146C.2889862 .059036256 .2769928 .08506775 .27598573 .12008667 .27398683 .15211487 .27398683 .23518372 .27398683 .32226563H.32398988C.40899659 .31925965 .44499208 .28622438 .44499208 .2101593V.19015503H.49699403C.49398805 .24119568 .49398805 .3062439 .49398805 .3502655 .49398805 .39328004 .49499513 .448349 .49699403 .50434878H.44299317Z"/>
<path id="font_2_12" d="M.3849945 .035461427C.23498535 .035461427 .18499756 .12638855 .18499756 .34620667 .18499756 .55503848 .24899292 .6559601 .3849945 .6559601 .5269928 .6559601 .58599856 .56903079 .58599856 .34721376 .58599856 .14038086 .5329895 .035461427 .3849945 .035461427M.3849945-.01953125C.57899478-.01953125 .7200012 .11340332 .7200012 .34721376 .7200012 .57901 .6069946 .70996096 .3849945 .70996096 .19099427 .70996096 .049987794 .5810089 .049987794 .34620667 .049987794 .11540222 .1639862-.01953125 .3849945-.01953125Z"/>
<path id="font_2_9" d="M.38598634 .6904297C.36499024 .6904297 .2749939 .6874237 .21299744 .6874237 .15098572 .6874237 .038986207 .6904297 .038986207 .6904297V.63142397H.101989749C.13798523 .63142397 .1519928 .6204071 .1539917 .5813751 .15699768 .52233889 .15699768 .17407227 .1539917 .10002136 .15299988 .06500244 .14199829 .05899048 .09599304 .05899048H.037994386V-.0020141602C.06399536-.0010070801 .16799927 0 .20799256 0H.43699647C.47999574 0 .57699587 0 .6239929-.0040130617 .621994 .06098938 .6279907 .20109558 .6339874 .2661438H.57299807C.5629883 .09501648 .5139923 .05899048 .40299989 .05899048H.31900025C.28799439 .05899048 .2709961 .067993167 .269989 .09902954 .2669983 .17407227 .2669983 .52233889 .269989 .5813751 .27198792 .6204071 .28599549 .63142397 .32299806 .63142397H.38598634V.6904297Z"/>
<path id="font_2_3" d="M.57398989 .15490723C.5970001 .09300232 .5799866 .059036256 .5319977 .059036256H.48799134L.4869995-.001953125C.4869995-.001953125 .60198977 .000045776369 .66600039 .000045776369 .7299957 .000045776369 .84399417-.001953125 .84399417-.001953125V.059036256H.798996C.7579956 .059036256 .73799136 .08201599 .71199038 .14093018 .6859894 .19985962 .5349884 .5781555 .49499513 .69628909 .49499513 .69628909 .45899964 .6932831 .43899537 .6932831 .4189911 .6932831 .38198854 .69628909 .38198854 .69628909 .33999635 .5791626 .20199585 .20285034 .17799378 .14193726 .1539917 .08100891 .1309967 .059036256 .07499695 .059036256H.037994386V-.001953125C.037994386-.001953125 .13699341 .000045776369 .19198609 .000045776369 .24699402 .000045776369 .34599305-.001953125 .34599305-.001953125L.34700013 .059036256H.3039856C.23899842 .059036256 .23298645 .09698486 .25 .15292359 .25299073 .16389466 .26098634 .18687439 .2709961 .21484375 .34700013 .21684265 .47898866 .21684265 .5519867 .21484375L.57398989 .15490723M.5329895 .26683045C.46398927 .26583863 .3600006 .26583863 .2889862 .26683045 .32699586 .37397767 .3809967 .5231781 .40899659 .59428408 .43798829 .5231018 .49398805 .37394715 .5329895 .26683045Z"/>
<path id="font_2_17" d="M.7939911-.005859375C.82899478 .12818909 .91799929 .4183197 .96099856 .5523834 .9799957 .6114044 1 .63142397 1.0449982 .63142397H1.0820007V.6904297C1.0690003 .6904297 1.0009918 .6874237 .95500186 .6874237 .9089966 .6874237 .82199099 .6904297 .82199099 .6904297V.63142397H.83999636C.8939972 .63142397 .9029999 .6054077 .8929901 .5533905 .8730011 .45132447 .8149872 .24220276 .7769928 .12113953 .7389984 .24520874 .6799927 .46333314 .6519928 .5683899 .6409912 .6104126 .6529999 .63142397 .69299319 .63142397H.72499087V.6904297C.71199038 .6904297 .6349945 .6874237 .58399966 .6874237 .5329895 .6874237 .44299317 .6904297 .44299317 .6904297V.63142397H.46299745C.5119934 .63142397 .519989 .6124115 .5089874 .5643921 .4850006 .45732118 .42099 .24220276 .3809967 .119140628 .34399415 .24220276 .2829895 .45832826 .25698854 .563385 .24398804 .6124115 .2579956 .63142397 .3019867 .63142397H.33999635V.6904297C.32699586 .6904297 .23799134 .6874237 .17999268 .6874237 .12199402 .6874237 .019989014 .6904297 .019989014 .6904297V.63142397H.05899048C.10499573 .63142397 .11898804 .6114197 .1329956 .563385 .17298889 .42530824 .25898744 .13113404 .2939911-.005859375H.394989C.4269867 .11213684 .5009918 .3572693 .5479889 .49835206 .59098818 .3572693 .6619873 .11213684 .69200137-.005859375H.7939911Z"/>
<path id="font_2_2" d="M.7350006 .13830567 .70199587 .14430237C.70199587 .08029175 .66600039 .038269044 .6119995 .038269044 .5799866 .038269044 .5509949 .042282106 .5 .10229492 .5569916 .15029907 .58898928 .20732117 .6029968 .27334596 .6069946 .29335023 .61698916 .31835938 .6649933 .31835938H.70599368V.36535646C.70599368 .36535646 .6269989 .36235047 .58200076 .36235047 .5369873 .36235047 .45799256 .36535646 .45799256 .36535646V.31835938H.4889984C.5289917 .31835938 .5339966 .28935243 .5319977 .26533509 .5279999 .21832276 .5130005 .1703186 .47698976 .1302948 .44799806 .16731262 .4139862 .21832276 .36999513 .29034425L.33898927 .3403473C.42999269 .37335206 .49398805 .45429994 .49398805 .5532379 .49398805 .63319399 .44198609 .7001953 .33799745 .7001953 .22599793 .7001953 .1579895 .6451874 .1579895 .5252533 .1579895 .46829225 .17298889 .41333009 .20599365 .3443451 .125 .32435609 .042999269 .26237489 .042999269 .15940857 .042999269 .045455934 .12799073-.01953125 .2559967-.01953125 .32998658-.01953125 .38598634 .0014648438 .4269867 .032455446 .47499085-.0017242432 .5219879-.01171875 .5779877-.01171875 .70399478-.01171875 .7279968 .061279298 .7350006 .13830567M.2869873 .03945923C.20698548 .038467409 .1559906 .09144592 .1559906 .18040467 .1559906 .23338318 .18598938 .2783661 .22698975 .30336 .23599243 .2863617 .24699402 .26837159 .2579956 .24937439 .30899049 .15940857 .35299684 .09944153 .3939972 .060455324 .36499024 .047454835 .32998658 .03945923 .2869873 .03945923M.2649994 .5472412C.2649994 .62120059 .2869873 .65219119 .33799745 .65219119 .3889923 .65219119 .4099884 .62120059 .4099884 .5472412 .4099884 .46629334 .3919983 .4063263 .32199098 .37135316 .2809906 .44630433 .2649994 .49427796 .2649994 .5472412Z"/>
<path id="font_2_10" d="M.44699098 .048034669H.47999574C.5319977 .17012024 .647995 .42529298 .71598818 .5653839 .71798709 .45629884 .71699526 .16810608 .71499636 .11807251 .71299746 .08305359 .70199587 .059036256 .6559906 .059036256H.598999V-.001953125C.598999-.001953125 .71099856 .000045776369 .7739868 .000045776369 .83699038 .000045776369 .94799807-.001953125 .94799807-.001953125V.059036256H.8919983C.84599307 .059036256 .83499148 .08305359 .83299258 .11807251 .8299866 .17411804 .8299866 .5223541 .83299258 .5753937 .83499148 .6144104 .85198977 .63142397 .8880005 .63142397H.94799807V.6904297C.8909912 .6884155 .7669983 .6884155 .70999148 .6904297 .6649933 .5813904 .56799319 .36524964 .5019989 .22514344 .43798829 .35923768 .33599855 .5813904 .2899933 .6904297 .22898865 .6884155 .100997928 .6884155 .039993287 .6904297V.63142397H.09399414C.12799073 .63142397 .14698792 .6164093 .14898682 .5793915 .1519928 .5223541 .1519928 .17411804 .14898682 .12408447 .1459961 .06803894 .13198853 .059036256 .085998538 .059036256H.037994386V-.001953125C.037994386-.001953125 .1329956 .000045776369 .18598938 .000045776369 .23899842 .000045776369 .33399964-.001953125 .33399964-.001953125V.059036256H.272995C.22698975 .059036256 .21398926 .07104492 .21099854 .12408447 .20799256 .16911316 .20698548 .46331788 .20999146 .563385 .2769928 .42529298 .3939972 .17012024 .44699098 .048034669Z"/>
<path id="font_2_7" d="M.040985109-.001953125C.040985109-.001953125 .15299988 .000045776369 .21499634 .000045776369 .2769928 .000045776369 .3880005-.001953125 .3880005-.001953125V.059036256H.33399964C.28799439 .059036256 .27598573 .06504822 .2749939 .09906006 .27198792 .17411804 .2709961 .5223541 .2749939 .5813904 .27799989 .62042239 .29100038 .63142397 .32699586 .63142397H.3880005V.6904297C.37199403 .6904297 .2769928 .6874237 .21499634 .6874237 .15299988 .6874237 .040985109 .6904297 .040985109 .6904297V.63142397H.101989749C.13798523 .63142397 .1519928 .62042239 .1539917 .5813904 .15699768 .5223541 .15699768 .17411804 .1539917 .09906006 .15299988 .06504822 .14099121 .059036256 .09599304 .059036256H.040985109V-.001953125Z"/>
<path id="font_2_8" d="M.100997928 .093551639C.1309967 .093551639 .1749878 .108551029 .1749878 .16156006 .1749878 .20155335 .14498902 .2265625 .101989749 .2265625 .04798889 .2265625 .018997193 .18655396 .018997193 .13955689 .018997193 .06150818 .07798767-.01953125 .20199585-.01953125 .34700013-.01953125 .44799806 .051483156 .44599916 .20256043 .44499208 .28953553 .44299317 .52246096 .44599916 .58143618 .44799806 .62142947 .46199037 .63142397 .49798585 .63142397H.5479889V.6904297C.5319977 .6904297 .44299317 .6874237 .38398744 .6874237 .32499696 .6874237 .21998596 .6904297 .21998596 .6904297V.63142397H.2709961C.30699159 .63142397 .32099916 .62042239 .32299806 .58143618 .32598878 .52246096 .32598878 .28953553 .32299806 .20155335 .31900025 .08554077 .27799989 .032455446 .19400025 .032455446 .12799073 .032455446 .09098816 .059509279 .07199097 .09855652 .07998657 .09555054 .08999634 .093551639 .100997928 .093551639Z"/>
<path id="font_2_16" d="M.13598633 .2818756C.13598633 .0655365 .23699951-.021484375 .43099977-.021484375 .61698916-.021484375 .70599368 .08155823 .70599368 .28086854 .70599368 .35699464 .70399478 .45915223 .70599368 .57133486 .70700076 .61039736 .7220001 .63142397 .7579956 .63142397H.8049927V.6904297C.78900149 .6904297 .71398928 .6874237 .6619873 .6874237 .6100006 .6874237 .5179901 .6904297 .5179901 .6904297V.63142397H.56399539C.59999087 .63142397 .62098696 .61138918 .621994 .57232668 .6239929 .45915223 .621994 .35798646 .621994 .27285768 .621994 .10159302 .5569916 .05050659 .43998719 .05050659 .32199098 .05050659 .25898744 .10760498 .25898744 .27285768V.57232668C.25898744 .6194 .27799989 .63142397 .31799317 .63142397H.3639984V.6904297C.34799195 .6904297 .2599945 .6874237 .20098877 .6874237 .14199829 .6874237 .037994386 .6904297 .037994386 .6904297V.63142397H.083999637C.12298584 .63142397 .1349945 .6154022 .13598633 .57232668 .13798523 .51023867 .13598633 .2818756 .13598633 .2818756Z"/>
<path id="font_2_14" d="M.31698609 .654953C.43499757 .654953 .5029907 .6009979 .5329895 .47709657L.58200076 .47703553C.57499697 .5400238 .5779877 .641037 .59498599 .7001953H.5419922C.5379944 .6720581 .5269928 .6500244 .47499085 .6760864 .45498658 .68595889 .39898683 .70996096 .32199098 .70996096 .1519928 .70996096 .07798767 .60899356 .07798767 .49508668 .07798767 .38017274 .1559906 .3122406 .30999757 .2922516 .46398927 .27127076 .5369873 .24128723 .5369873 .15736389 .5369873 .078430179 .46699525 .035461427 .35398866 .035461427 .21199036 .035461427 .13999939 .10240173 .11099243 .2303009L.057998659 .23046875C.06498718 .15545655 .06199646 .066467288 .04798889-.0068359377H.100997928C.10598755 .025360108 .117996219 .0594635 .16699219 .030395508 .22599793-.0045318605 .27999879-.01953125 .35499574-.01953125 .5149994-.01953125 .6179962 .06542969 .6179962 .20233155 .6179962 .33021546 .5609894 .40415956 .3639984 .43014527 .21998596 .4491272 .15899658 .47709657 .15899658 .54803469 .15899658 .60899356 .21099854 .654953 .31698609 .654953Z"/>
<clipPath id="clip_3">
<path transform="matrix(1,0,0,-1,0,288)" d="M0 288H432V0H0Z"/>
</clipPath>
</defs>
<g inkscape:groupmode="layer" inkscape:label="Layer 1">
<use data-text="H" xlink:href="#font_1_5" transform="matrix(29,0,0,-29,99.8716,148.499)" fill="#6b9080"/>
<use data-text="A" xlink:href="#font_1_2" transform="matrix(29,0,0,-29,125.6816,148.499)" fill="#6b9080"/>
<use data-text="W" xlink:href="#font_1_10" transform="matrix(29,0,0,-29,147.5476,148.499)" fill="#6b9080"/>
<use data-text="A" xlink:href="#font_1_2" transform="matrix(29,0,0,-29,176.25762,148.499)" fill="#6b9080"/>
<use data-text="I" xlink:href="#font_1_6" transform="matrix(29,0,0,-29,198.99359,148.499)" fill="#6b9080"/>
<use data-text="&#x2018;" xlink:href="#font_1_11" transform="matrix(29,0,0,-29,209.0566,148.499)" fill="#6b9080"/>
<use data-text="I" xlink:href="#font_1_6" transform="matrix(29,0,0,-29,215.6106,148.499)" fill="#6b9080"/>
<use data-text=" " xlink:href="#font_1_1" transform="matrix(29,0,0,-29,228.4866,148.499)" fill="#6b9080"/>
<use data-text="A" xlink:href="#font_1_2" transform="matrix(29,0,0,-29,238.69461,148.499)" fill="#6b9080"/>
<use data-text="P" xlink:href="#font_1_8" transform="matrix(29,0,0,-29,261.7206,148.499)" fill="#6b9080"/>
<use data-text="P" xlink:href="#font_1_8" transform="matrix(29,0,0,-29,282.68763,148.499)" fill="#6b9080"/>
<use data-text="L" xlink:href="#font_1_7" transform="matrix(29,0,0,-29,303.65464,148.499)" fill="#6b9080"/>
<use data-text="E" xlink:href="#font_1_4" transform="matrix(29,0,0,-29,322.09864,148.499)" fill="#6b9080"/>
<use data-text="S" xlink:href="#font_1_9" transform="matrix(29,0,0,-29,342.94966,148.499)" fill="#6b9080"/>
<use data-text="E" xlink:href="#font_1_4" transform="matrix(29,0,0,-29,362.46665,148.499)" fill="#6b9080"/>
<use data-text="E" xlink:href="#font_1_4" transform="matrix(29,0,0,-29,383.31767,148.499)" fill="#6b9080"/>
<use data-text="D" xlink:href="#font_1_3" transform="matrix(29,0,0,-29,404.16868,148.499)" fill="#6b9080"/>
<use data-text="C" xlink:href="#font_2_4" transform="matrix(14.56,0,0,-14,99.6694,165.8203)" fill="#6b9080"/>
<use data-text="E" xlink:href="#font_2_5" transform="matrix(14.56,0,0,-14,110.531169,165.8203)" fill="#6b9080"/>
<use data-text="N" xlink:href="#font_2_11" transform="matrix(14.56,0,0,-14,121.56765,165.8203)" fill="#6b9080"/>
<use data-text="T" xlink:href="#font_2_15" transform="matrix(14.56,0,0,-14,134.07469,165.8203)" fill="#6b9080"/>
<use data-text="E" xlink:href="#font_2_5" transform="matrix(14.56,0,0,-14,144.80542,165.8203)" fill="#6b9080"/>
<use data-text="R" xlink:href="#font_2_13" transform="matrix(14.56,0,0,-14,155.8419,165.8203)" fill="#6b9080"/>
<use data-text=" " xlink:href="#font_2_1" transform="matrix(14.56,0,0,-14,167.54814,165.8203)" fill="#6b9080"/>
<use data-text="F" xlink:href="#font_2_6" transform="matrix(14.56,0,0,-14,171.3483,165.8203)" fill="#6b9080"/>
<use data-text="O" xlink:href="#font_2_12" transform="matrix(14.56,0,0,-14,181.5403,165.8203)" fill="#6b9080"/>
<use data-text="R" xlink:href="#font_2_13" transform="matrix(14.56,0,0,-14,192.83887,165.8203)" fill="#6b9080"/>
<use data-text=" " xlink:href="#font_2_1" transform="matrix(14.56,0,0,-14,204.5451,165.8203)" fill="#6b9080"/>
<use data-text="L" xlink:href="#font_2_9" transform="matrix(14.56,0,0,-14,208.34526,165.8203)" fill="#6b9080"/>
<use data-text="A" xlink:href="#font_2_3" transform="matrix(14.56,0,0,-14,217.99709,165.8203)" fill="#6b9080"/>
<use data-text="W" xlink:href="#font_2_17" transform="matrix(14.56,0,0,-14,228.81516,165.8203)" fill="#6b9080"/>
<use data-text=" " xlink:href="#font_2_1" transform="matrix(14.56,0,0,-14,245.23883,165.8203)" fill="#6b9080"/>
<use data-text="&amp;" xlink:href="#font_2_2" transform="matrix(14.56,0,0,-14,249.03899,165.8203)" fill="#6b9080"/>
<use data-text=" " xlink:href="#font_2_1" transform="matrix(14.56,0,0,-14,260.33757,165.8203)" fill="#6b9080"/>
<use data-text="E" xlink:href="#font_2_5" transform="matrix(14.56,0,0,-14,264.13774,165.8203)" fill="#6b9080"/>
<use data-text="C" xlink:href="#font_2_4" transform="matrix(14.56,0,0,-14,275.1742,165.8203)" fill="#6b9080"/>
<use data-text="O" xlink:href="#font_2_12" transform="matrix(14.56,0,0,-14,286.18156,165.8203)" fill="#6b9080"/>
<use data-text="N" xlink:href="#font_2_11" transform="matrix(14.56,0,0,-14,297.4801,165.8203)" fill="#6b9080"/>
<use data-text="O" xlink:href="#font_2_12" transform="matrix(14.56,0,0,-14,309.40476,165.8203)" fill="#6b9080"/>
<use data-text="M" xlink:href="#font_2_10" transform="matrix(14.56,0,0,-14,320.70185,165.8203)" fill="#6b9080"/>
<use data-text="I" xlink:href="#font_2_7" transform="matrix(14.56,0,0,-14,335.4511,165.8203)" fill="#6b9080"/>
<use data-text="C" xlink:href="#font_2_4" transform="matrix(14.56,0,0,-14,341.62309,165.8203)" fill="#6b9080"/>
<use data-text=" " xlink:href="#font_2_1" transform="matrix(14.56,0,0,-14,352.70326,165.8203)" fill="#6b9080"/>
<use data-text="J" xlink:href="#font_2_8" transform="matrix(14.56,0,0,-14,356.50343,165.8203)" fill="#6b9080"/>
<use data-text="U" xlink:href="#font_2_16" transform="matrix(14.56,0,0,-14,365.12294,165.8203)" fill="#6b9080"/>
<use data-text="S" xlink:href="#font_2_14" transform="matrix(14.56,0,0,-14,377.48439,165.8203)" fill="#6b9080"/>
<use data-text="T" xlink:href="#font_2_15" transform="matrix(14.56,0,0,-14,387.28327,165.8203)" fill="#6b9080"/>
<use data-text="I" xlink:href="#font_2_7" transform="matrix(14.56,0,0,-14,398.01399,165.8203)" fill="#6b9080"/>
<use data-text="C" xlink:href="#font_2_4" transform="matrix(14.56,0,0,-14,404.1874,165.8203)" fill="#6b9080"/>
<use data-text="E" xlink:href="#font_2_5" transform="matrix(14.56,0,0,-14,415.04774,165.8203)" fill="#6b9080"/>
<g clip-path="url(#clip_3)">
<path transform="matrix(1,0,0,-1,69.7437,108.8723)" d="M0 0C-1.303-.233-2.431-.854-3.42-1.69-6.956-4.678-10.273-7.89-13.18-11.507-13.742-12.207-14.289-12.92-15.042-13.432-16.333-14.31-17.532-14.06-18.308-12.709-19.233-11.099-19.28-9.343-18.844-7.617-17.319-1.582-13.84 2.914-8.121 5.525-.63 8.945 6.974 8.857 14.635 6.123 16.566 5.433 18.384 4.535 19.933 3.158V2.882C16.504 1.496 14.372-1.273 12.478-4.243 10.649-7.11 8.98-10.08 7.172-12.961 5.723-15.271 3.996-17.357 1.81-19.034-1.541-21.604-5.253-21.893-9.191-20.822-10.301-20.52-11.391-20.161-12.447-19.699-12.846-19.525-13.26-19.375-13.68-19.265-14.611-19.024-15.091-19.222-15.595-20.042-17.082-22.463-18.27-25.032-19.112-27.739-21.503-35.435-22.731-43.31-22.613-51.383-22.567-54.564-21.803-57.515-20.001-60.177-19.746-60.554-19.551-60.439-19.269-60.341-15.135-58.905-10.888-58.038-6.509-57.933-1.005-57.802 4.324-58.597 9.214-61.315 11.677-62.685 13.988-64.272 15.715-66.568 16.077-67.048 16.402-67.547 16.637-68.1 16.693-68.232 16.819-68.416 16.605-68.519 16.449-68.594 16.363-68.434 16.274-68.337 15.825-67.845 15.465-67.28 14.973-66.82 12.128-64.158 8.731-62.515 4.994-61.611-.159-60.364-5.383-59.771-10.669-60.659-16.599-61.656-22.154-63.737-27.403-66.649-30.559-68.399-33.539-70.465-36.803-72.018-40.419-73.738-44.159-75.03-48.24-75.049-53.079-75.072-57.492-73.782-61.409-70.898-61.529-70.679-61.582-70.463-61.379-70.259-58.656-71.904-55.676-72.784-52.545-73.194-49.129-73.642-45.855-73.001-42.664-71.83-38.695-70.374-35.044-68.279-31.414-66.147-29.907-65.261-28.402-64.372-26.826-63.613-26.407-63.41-26.269-63.185-26.371-62.709-26.72-61.082-26.82-59.417-26.801-57.766-26.741-52.63-28.294-48.003-30.967-43.677-32.732-40.821-34.384-37.896-36.247-35.1-36.425-34.833-36.618-34.574-36.82-34.324-37.467-33.52-38.288-33.27-39.283-33.552-40.343-33.853-41.392-34.191-42.501-34.3-44.707-34.517-46.446-33.724-47.817-32.004-49.189-30.282-50.192-28.344-51.202-26.407-52.256-24.386-53.327-22.375-54.896-20.686-55.43-20.111-55.99-19.558-56.651-19.137-57.188-18.795-57.082-18.541-56.665-18.216-55.166-17.047-53.476-16.324-51.612-15.961-45.623-14.794-38.651-17.774-35.493-22.88-34.734-24.107-34.219-25.429-34.07-26.876-33.987-27.687-34.04-28.488-34.366-29.248-34.924-30.549-36.038-30.793-37.05-29.797-38.049-28.812-38.995-27.773-39.971-26.765-41.174-25.525-42.415-24.326-43.884-23.395-44.882-22.763-45.599-22.532-46.285-22.597-46.199-22.802-45.989-22.797-45.83-22.867-44.616-23.398-43.56-24.146-42.594-25.06-38.063-29.342-34.55-34.371-31.61-39.836-30.76-41.416-29.815-42.947-28.506-44.21-28.124-44.578-27.727-44.929-27.261-45.187-26.378-45.673-25.674-45.499-25.136-44.643-24.638-43.85-24.422-42.953-24.255-42.045-23.507-37.975-22.848-33.888-21.783-29.881-20.055-23.379-16.665-17.752-12.628-12.475-10.092-9.16-7.151-6.205-4.149-3.314-2.726-1.944-1.104-.877 .746-.167 .802-.073 .904-.03 1.001 .054 .654 .039 .324 .099 0 0" fill="#6b9080"/>
<path transform="matrix(1,0,0,-1,54.3708,187.65219)" d="M0 0C-2.839 .608-7.99 1.771-7.967 2.901-7 7.173-2.463 11.303 .428 13.156 6.591 17.593 18.78 15.008 15.233 6.35 12.506 1.126 4.176-.895 0 0" fill="#6b9080"/>
<path transform="matrix(1,0,0,-1,8.3652,179.13141)" d="M0 0C-.01-.213-.02-.426-.03-.639-.863-.148-1.443 .574-1.961 1.353-1.92 1.4-1.88 1.446-1.839 1.493-1.226 .996-.613 .498 0 0" fill="#6b9080"/>
<path transform="matrix(1,0,0,-1,69.7437,108.8723)" d="M0 0C.479 .191 .972 .236 1.596 .186 1.304-.122 1.026-.147 .746-.167 .541 .085 .244-.074 0 0" fill="#6b9080"/>
</g>
</g>
</svg>
